{"title":"Sanctum 3D (Stereoscopic Side-by-Side MKV)","uid":6671851,"size":9120900117,"categoryP":"video","categoryS":"3d","magnet":"?xt=urn:btih:b0ffe93d42864bc8ccc90002f5ce53c03146d332&amp;dn=Sanctum+3D+%28Stereoscopic+Side-by-Side+MKV%29&amp;tr=udp%3A%2F%2Ftracker.openbittorrent.com%3A80&amp;tr=udp%3A%2F%2Fopen.demonii.com%3A1337&amp;tr=udp%3A%2F%2Ftracker.coppersurfer.tk%3A6969&amp;tr=udp%3A%2F%2Fexodus.desync.com%3A6969","seeders":0,"leechers":0,"uploader":"L3G3ND","files":2,"time":1315902665,"description":"This is a stereoscopic 3D rip of Sanctum 3D, for new 3D TVs or computers with Nvidia 3D Vision. Tested with Stereoscopic Player. Enjoy!\n\nTitle: Sanctum (2011)\nRated: R\nRuntime: 108 Minutes\nGenre: Action | Adventure | Drama\n\nDescription:\nThe 3-D action-thriller Sanctum follows a team of underwater cave divers on a treacherous expedition to the largest, most beautiful and least accessible cave system on Earth. When a tropical storm forces them deep into the caverns, they must fight raging water, deadly terrain and creeping panic as they search for an unknown escape route to the sea. Master diver Frank McGuire has explored the South Pacific's Esa-ala Caves for months. But when his exit is cut off in a flash flood, Frank's team-including 17-year-old son Josh and financier Carl Hurley are forced to radically alter plans. With dwindling supplies, the crew must navigate an underwater labyrinth to make it out. Soon, they are confronted with the unavoidable question: Can they survive, or will they be trapped forever?\n-From IMDB Page: http://www.imdb.com/title/tt0881320/\n\nGeneral\nUnique ID : 246723181616776108694796546785212767715 (0xB99D28063A3CC22E994F71B1F02E1DE3)\nComplete name : [filepath]/Sanctum 3D.mkv\nFormat : Matroska\nFile size : 8.49 GiB\nDuration : 1h 48mn\nOverall bit rate : 11.2 Mbps\nMovie name : Sanctum\nEncoded date : UTC 2011-04-17 16:35:22\nWriting application : mkvmerge v4.6.0 ('Still Crazy After All These Years') gemaakt op Mar 10 2011 02:50:32\nWriting library : libebml v1.2.0 + libmatroska v1.1.0\n\nVideo\nID : 1\nFormat : AVC\nFormat/Info : Advanced Video Codec\nFormat profile : &lt;a class=&quot;__cf_email__&quot; href=&quot;/cdn-cgi/l/email-protection&quot; data-cfemail=&quot;a6eecfc1cee6ea928896&quot;&gt;[email&amp;#160;protected]&lt;/a&gt;&lt;script data-cfhash='f9e31' type=&quot;text/javascript&quot;&gt;\n/* &lt;![CDATA[ */!function(){try{var t=&quot;currentScript&quot;in document?document.currentScript:function(){for(var t=document.getElementsByTagName(&quot;script&quot;),e=t.length;e--;)if(t[e].getAttribute(&quot;data-cfhash&quot;))return t[e]}();if(t&amp;&amp;t.previousSibling){var e,r,n,i,c=t.previousSibling,a=c.getAttribute(&quot;data-cfemail&quot;);if(a){for(e=&quot;&quot;,r=parseInt(a.substr(0,2),16),n=2;a.length-n;n+=2)i=parseInt(a.substr(n,2),16)^r,e+=String.fromCharCode(i);e=document.createTextNode(e),c.parentNode.replaceChild(e,c)}t.parentNode.removeChild(t);}}catch(u){}}()/* ]]&gt; */&lt;/script&gt;\nFormat settings, CABAC : Yes\nFormat settings, ReFrames : 4 frames\nFormat settings, GOP : M=2, N=5\nCodec ID : V_MPEG4/ISO/AVC\nDuration : 1h 48mn\nBit rate : 9 443 Kbps\nNominal bit rate : 10 000 Kbps\nWidth : 1 920 pixels\nHeight : 1 080 pixels\nDisplay aspect ratio : 16:9\nFrame rate mode : Variable\nFrame rate : 23.976 fps\nColor space : YUV\nChroma subsampling : 4:2:0\nBit depth : 8 bits\nScan type : Progressive\nBits/(Pixel*Frame) : 0.190\nStream size : 7.18 GiB (84%)\nWriting library : x264 core 107 r1745 4785e8e\nLanguage : English\n\nAudio\nID : 2\nFormat : DTS\nFormat/Info : Digital Theater Systems\nCodec ID : A_DTS\nDuration : 1h 48mn\nBit rate mode : Constant\nBit rate : 1 510 Kbps\nChannel(s) : 6 channels\nChannel positions : Front: L C R, Side: L R, LFE\nSampling rate : 48.0 KHz\nBit depth : 24 bits\nCompression mode : Lossy\nStream size : 1.15 GiB (14%)\nLanguage : English","torrent":{"xt":"urn:btih:b0ffe93d42864bc8ccc90002f5ce53c03146d332","amp;dn":"Sanctum+3D+%28Stereoscopic+Side-by-Side+MKV%29","amp;tr":["udp%3A%2F%2Ftracker.openbittorrent.com%3A80","udp%3A%2F%2Fopen.demonii.com%3A1337","udp%3A%2F%2Ftracker.coppersurfer.tk%3A6969","udp%3A%2F%2Fexodus.desync.com%3A6969"],"infoHash":"b0ffe93d42864bc8ccc90002f5ce53c03146d332","infoHashBuffer":{"type":"Buffer","data":[176,255,233,61,66,134,75,200,204,201,0,2,245,206,83,192,49,70,211,50]},"announce":[],"urlList":[]}}